{"title":"Taxi Driver (1976) DVDRip XviD AC3 peaSoup","uid":11250867,"size":1818277282,"categoryP":"video","categoryS":"movies","magnet":"?xt=urn:btih:d7efa217c3d2a9a4f3939bd9ed1d03a62c3cbb0e&amp;dn=Taxi+Driver+%281976%29+DVDRip+XviD+AC3+peaSoup&amp;tr=udp%3A%2F%2Ftracker.openbittorrent.com%3A80&amp;tr=udp%3A%2F%2Fopen.demonii.com%3A1337&amp;tr=udp%3A%2F%2Ftracker.coppersurfer.tk%3A6969&amp;tr=udp%3A%2F%2Fexodus.desync.com%3A6969","seeders":5,"leechers":2,"uploader":"peaSoup","files":-1,"time":1413827700,"description":"A mentally unstable Vietnam war veteran works as a night-time taxi driver in New York City where the perceived decadence and sleaze feeds his urge for violent action, attempting to save a preadolescent prostitute in the process.               &lt;a href=&quot; http://i.imgur.com/WZlgzgZ.jpg&quot; rel=&quot;nofollow&quot; target=&quot;_NEW&quot;&gt; http://i.imgur.com/WZlgzgZ.jpg&lt;/a&gt;                                                      &lt;a href=&quot; http://i.imgur.com/1uqE2v5.jpg&quot; rel=&quot;nofollow&quot; target=&quot;_NEW&quot;&gt; http://i.imgur.com/1uqE2v5.jpg&lt;/a&gt;                                                      &lt;a href=&quot; http://i.imgur.com/ahqTxEa.jpg&quot; rel=&quot;nofollow&quot; target=&quot;_NEW&quot;&gt; http://i.imgur.com/ahqTxEa.jpg&lt;/a&gt;                                                      &lt;a href=&quot; http://i.imgur.com/wgIDTYo.jpg&quot; rel=&quot;nofollow&quot; target=&quot;_NEW&quot;&gt; http://i.imgur.com/wgIDTYo.jpg&lt;/a&gt;                                                      &lt;a href=&quot; http://i.imgur.com/cKgU2wq.jpg&quot; rel=&quot;nofollow&quot; target=&quot;_NEW&quot;&gt; http://i.imgur.com/cKgU2wq.jpg&lt;/a&gt;                                                       \nFormat                                   : AVI\nFormat/Info                              : Audio Video Interleave\nFormat profile                           : OpenDML\nFile size                                : 1.69 GiB\nDuration                                 : 1h 49mn\nOverall bit rate                         : 2 215 Kbps\nMovie name                               : Taxi Driver (1976) DVDRip XviD AC3 peaSoup\nWriting application                      : Lavf55.33.100\nOriginal source form/Name                : TAXI_DRIVER\n\nVideo\nID                                       : 0\nFormat                                   : MPEG-4 Visual\nFormat profile                           : Advanced Simple@L5\nFormat settings, BVOP                    : 2\nFormat settings, QPel                    : No\nFormat settings, GMC                     : No warppoints\nFormat settings, Matrix                  : Default (MPEG)\nMuxing mode                              : Packed bitstream\nCodec ID                                 : XVID\nCodec ID/Hint                            : XviD\nDuration                                 : 1h 49mn\nBit rate                                 : 2 011 Kbps\nWidth                                    : 720 pixels\nHeight                                   : 396 pixels\nDisplay aspect ratio                     : 16:9\nFrame rate                               : 25.000 fps\nColor space                              : YUV\nChroma subsampling                       : 4:2:0\nBit depth                                : 8 bits\nScan type                                : Progressive\nCompression mode                         : Lossy\nBits/(Pixel*Frame)                       : 0.282\nStream size                              : 1.53 GiB (91%)\nWriting library                          : XviD 64\n\nAudio\nID                                       : 1\nFormat                                   : AC-3\nFormat/Info                              : Audio Coding 3\nFormat profile                           : Dolby Digital\nMode extension                           : CM (complete main)\nFormat settings, Endianness              : Big\nCodec ID                                 : 2000\nDuration                                 : 1h 49mn\nBit rate mode                            : Constant\nBit rate                                 : 192 Kbps\nChannel(s)                               : 2 channels\nChannel positions                        : Front: L R\nSampling rate                            : 48.0 KHz\nBit depth                                : 16 bits\nCompression mode                         : Lossy\nStream size                              : 150 MiB (9%)\nAlignment                                : Aligned on interleaves\nInterleave, duration                     : 32 ms (0.80 video frame)","torrent":{"xt":"urn:btih:d7efa217c3d2a9a4f3939bd9ed1d03a62c3cbb0e","amp;dn":"Taxi+Driver+%281976%29+DVDRip+XviD+AC3+peaSoup","amp;tr":["udp%3A%2F%2Ftracker.openbittorrent.com%3A80","udp%3A%2F%2Fopen.demonii.com%3A1337","udp%3A%2F%2Ftracker.coppersurfer.tk%3A6969","udp%3A%2F%2Fexodus.desync.com%3A6969"],"infoHash":"d7efa217c3d2a9a4f3939bd9ed1d03a62c3cbb0e","infoHashBuffer":{"type":"Buffer","data":[215,239,162,23,195,210,169,164,243,147,155,217,237,29,3,166,44,60,187,14]},"announce":[],"urlList":[]}}